{"title":"White House Down 2013 BRRip XviD MP3-RARBG","uid":13517967,"size":1781609549,"categoryP":"video","categoryS":"movies","magnet":"?xt=urn:btih:7118b0e948f7e4a1624c32a53dd8f35eba93e7cb&amp;dn=White+House+Down+2013+BRRip+XviD+MP3-RARBG&amp;tr=udp%3A%2F%2Ftracker.leechers-paradise.org%3A6969&amp;tr=udp%3A%2F%2Fzer0day.ch%3A1337&amp;tr=udp%3A%2F%2Fopen.demonii.com%3A1337&amp;tr=udp%3A%2F%2Ftracker.coppersurfer.tk%3A6969&amp;tr=udp%3A%2F%2Fexodus.desync.com%3A6969","seeders":0,"leechers":0,"uploader":"roflcopter2110","files":5,"time":1455332698,"description":"White.House.Down.2013.BRRip.XviD.MP3-RARBG\r\n\r\nMediainfo :\r\n\r\nVideo\r\nID : 0\r\nFormat : MPEG-4 Visual\r\nFormat profile :   \r\nFormat settings, BVOP : No\r\nFormat settings, QPel : No\r\nFormat settings, GMC : No warppoints\r\nFormat settings, Matrix : Default (H.263)\r\nCodec ID : XVID\r\nCodec ID/Hint : XviD\r\nDuration : 2h 11mn\r\nBit rate : 1 599 Kbps\r\nWidth : 720 pixels\r\nHeight : 304 pixels\r\nDisplay aspect ratio : 2.40:1\r\nOriginal display aspect ratio : 2.40:1\r\nFrame rate : 23.976 fps\r\nColor space : YUV\r\nChroma subsampling : 4:2:0\r\nBit depth : 8 bits\r\nScan type : Progressive\r\nCompression mode : Lossy\r\nBits/(Pixel*Frame) : 0.305\r\nStream size : 1.47 GiB (89%)\r\nTitle : RARBG.COM - White.House.Down.2013.BRRip.XviD.MP3-RARBG\r\nWriting library : Lavc56.60.100\r\n\r\nAudio\r\nID : 1\r\nFormat : MPEG Audio\r\nFormat version : Version 1\r\nFormat profile : Layer 3\r\nMode : Joint stereo\r\nCodec ID : 55\r\nCodec ID/Hint : MP3\r\nDuration : 2h 11mn\r\nBit rate mode : Constant\r\nBit rate : 192 Kbps\r\nChannel(s) : 2 channels\r\nSampling rate : 48.0 KHz\r\nCompression mode : Lossy\r\nStream size : 181 MiB (11%)\r\nAlignment : Aligned on interleaves\r\nInterleave, duration : 24 ms (0.58 video frame)\r\nInterleave, preload duration : 24 ms\r\nTitle : RARBG.COM - White.House.Down.2013.BRRip.XviD.MP3-RARBG","torrent":{"xt":"urn:btih:7118b0e948f7e4a1624c32a53dd8f35eba93e7cb","amp;dn":"White+House+Down+2013+BRRip+XviD+MP3-RARBG","amp;tr":["udp%3A%2F%2Ftracker.leechers-paradise.org%3A6969","udp%3A%2F%2Fzer0day.ch%3A1337","udp%3A%2F%2Fopen.demonii.com%3A1337","udp%3A%2F%2Ftracker.coppersurfer.tk%3A6969","udp%3A%2F%2Fexodus.desync.com%3A6969"],"infoHash":"7118b0e948f7e4a1624c32a53dd8f35eba93e7cb","infoHashBuffer":{"type":"Buffer","data":[113,24,176,233,72,247,228,161,98,76,50,165,61,216,243,94,186,147,231,203]},"announce":[],"urlList":[]}}